<svg width="216" height="97" viewBox="0 0 216 97" fill="none" xmlns="http://www.w3.org/2000/svg">
<path d="M28.365 9.5098C28.365 8.47957 28.0141 7.58803 27.3124 6.83517C26.6107 6.08231 25.7798 5.70588 24.8195 5.70588C23.8593 5.70588 23.0283 6.08231 22.3266 6.83517C21.6249 7.58803 21.2741 8.47957 21.2741 9.5098C21.2741 10.54 21.6249 11.4316 22.3266 12.1844C23.0283 12.9373 23.8593 13.3137 24.8195 13.3137C25.7798 13.3137 26.6107 12.9373 27.3124 12.1844C28.0141 11.4316 28.365 10.54 28.365 9.5098ZM78.0014 7.60784V26.6275C78.0014 27.2614 77.7798 27.7567 77.3366 28.1134C77.0411 28.3907 76.6718 28.5294 76.2286 28.5294C76.0809 28.5294 75.9516 28.5096 75.8408 28.47L51.0227 22.7641C50.6164 22.6848 50.284 22.4669 50.0255 22.1103C49.767 21.7537 49.6377 21.3574 49.6377 20.9216H35.4559V26.9841C39.5553 27.8954 42.9438 30.0946 45.6214 33.5815C48.2989 37.0684 49.6377 41.0903 49.6377 45.6471V93.1961C49.6377 94.2263 49.2869 95.1178 48.5852 95.8707C47.8835 96.6236 47.0525 97 46.0923 97H17.7286C16.7684 97 15.9374 96.6236 15.2357 95.8707C14.534 95.1178 14.1832 94.2263 14.1832 93.1961V45.6471C14.1832 41.4469 15.3373 37.6727 17.6455 34.3244C19.9538 30.9762 22.936 28.7077 26.5923 27.519V20.9216H24.8195C22.6406 20.9216 20.517 21.3872 18.4488 22.3183C16.3806 23.2495 14.691 24.2995 13.3799 25.4684C12.0688 26.6374 10.8501 27.9549 9.72365 29.421C8.59723 30.887 7.84936 31.947 7.48004 32.6008C7.11073 33.2546 6.8522 33.74 6.70448 34.057C6.07664 35.4438 5.02408 36.1373 3.54681 36.1373C2.9559 36.1373 2.42039 35.9986 1.94027 35.7212C1.09084 35.2457 0.509164 34.5127 0.195243 33.5221C-0.118677 32.5315 -0.0540466 31.5607 0.389135 30.6097C0.573794 30.2134 0.84155 29.6983 1.1924 29.0643C1.54325 28.4304 2.23573 27.3704 3.26982 25.8845C4.30391 24.3986 5.4211 23.0117 6.62138 21.724C7.82166 20.4362 9.39127 19.1088 11.3302 17.7417C13.2691 16.3747 15.2727 15.3346 17.3408 14.6213C16.4175 12.9571 15.9559 11.2533 15.9559 9.5098C15.9559 6.89461 16.8238 4.65584 18.5596 2.7935C20.2954 0.931168 22.382 0 24.8195 0C27.257 0 29.3437 0.931168 31.0795 2.7935C32.8153 4.65584 33.6832 6.89461 33.6832 9.5098C33.6832 10.8174 33.4246 12.0854 32.9076 13.3137H49.6377C49.6377 12.8779 49.767 12.4816 50.0255 12.125C50.284 11.7684 50.6164 11.5504 51.0227 11.4712L75.8408 5.76532C75.9516 5.72569 76.0809 5.70588 76.2286 5.70588C76.6718 5.70588 77.0411 5.84457 77.3366 6.12194C77.7798 6.47855 78.0014 6.97386 78.0014 7.60784Z" fill="black"/>
<path d="M60.16 60.32C61.0933 60.4 61.9067 60.6533 62.6 61.08C63.2933 61.48 63.64 62.0933 63.64 62.92C63.64 63.5333 63.3467 64.0267 62.76 64.4C62.2 64.7467 61.52 64.92 60.72 64.92C59.9467 64.92 59.4133 64.72 59.12 64.32C58.8267 63.92 58.68 63.5067 58.68 63.08C58.68 62.28 58.76 61.6133 58.92 61.08C59.1067 60.5467 59.52 60.2933 60.16 60.32ZM63.36 78.04V79.2C63.36 80.24 63.3867 81.2267 63.44 82.16C63.52 83.0667 63.6133 83.9867 63.72 84.92C63.6933 85.1867 63.4933 85.4667 63.12 85.76C62.7467 86.0267 62.4133 86.16 62.12 86.16C61.6133 86.16 61.0933 86.0667 60.56 85.88C60.0533 85.6667 59.7467 85.4133 59.64 85.12C59.48 84.2667 59.4 83.5067 59.4 82.84C59.4 80.6533 59.3333 78.2 59.2 75.48C59.0933 73.08 59.04 71.4 59.04 70.44C59.04 69.96 59.28 69.5467 59.76 69.2C60.24 68.8533 60.7467 68.68 61.28 68.68C62.0533 68.68 62.5867 68.8533 62.88 69.2C63.2 69.5467 63.36 70.0933 63.36 70.84V78.04ZM74.2744 84.4C74.2744 84.8533 74.101 85.2533 73.7544 85.6C73.4077 85.9467 72.981 86.12 72.4744 86.12C71.6744 86.12 71.0877 85.9733 70.7144 85.68C70.341 85.36 70.1544 84.7867 70.1544 83.96C70.1544 82.9733 70.1277 81.68 70.0744 80.08C70.021 78.7467 69.9944 77.6267 69.9944 76.72C69.9944 76.2933 70.021 75.7333 70.0744 75.04C70.1277 74.4 70.1544 73.92 70.1544 73.6C70.0744 73.0933 69.8744 72.68 69.5544 72.36C69.2344 72.0133 68.821 71.84 68.3144 71.84C68.0744 71.84 67.8744 71.7333 67.7144 71.52C67.5544 71.28 67.4744 71.04 67.4744 70.8C67.4744 70.1867 67.7144 69.72 68.1944 69.4C68.701 69.08 69.301 68.92 69.9944 68.92C71.4344 68.92 72.4344 69.7733 72.9944 71.48C73.6877 70.68 74.4744 70.04 75.3544 69.56C76.261 69.0533 77.1277 68.8 77.9544 68.8C78.941 68.8 79.8344 69.0667 80.6344 69.6C81.461 70.1333 81.8744 70.8533 81.8744 71.76C81.8744 72.2667 81.6477 72.7867 81.1944 73.32C80.7677 73.8533 80.3277 74.12 79.8744 74.12C79.6344 74.12 79.421 74.0667 79.2344 73.96C79.0744 73.8267 78.8744 73.64 78.6344 73.4C78.3677 73.1333 78.141 72.9467 77.9544 72.84C77.7677 72.7067 77.5544 72.64 77.3144 72.64C76.8877 72.64 76.4877 72.7067 76.1144 72.84C75.741 72.9733 75.4877 73.1333 75.3544 73.32C74.9277 73.9867 74.6077 74.5867 74.3944 75.12C74.2077 75.6533 74.1144 76.2267 74.1144 76.84C74.1144 77.2933 74.101 77.6533 74.0744 77.92L74.0344 80.2C74.0344 80.5467 74.0477 80.9333 74.0744 81.36C74.101 81.7867 74.1277 82.1067 74.1544 82.32C74.2344 83.04 74.2744 83.7333 74.2744 84.4ZM83.8528 76.84C83.8528 75.2133 84.2128 73.8667 84.9328 72.8C85.6528 71.7067 86.6528 70.68 87.9328 69.72C88.3061 69.4533 88.9328 69.2267 89.8128 69.04C90.6928 68.8267 91.4661 68.72 92.1328 68.72C92.9328 68.72 93.7728 68.8933 94.6528 69.24C95.5595 69.56 96.2928 69.9333 96.8528 70.36C97.8395 71.08 98.5195 71.92 98.8928 72.88C99.2661 73.8133 99.4528 74.9333 99.4528 76.24C99.4528 76.8 99.1328 77.3467 98.4928 77.88C97.8795 78.3867 97.2128 78.64 96.4928 78.64L94.9728 78.6C94.1995 78.6 93.0928 78.6267 91.6528 78.68L90.8128 78.72C90.2261 78.7733 89.7861 78.8 89.4928 78.8C89.0661 78.8 88.4795 78.7467 87.7328 78.64C87.8395 79.8933 88.3061 80.88 89.1328 81.6C89.9595 82.2933 90.8528 82.64 91.8128 82.64C93.4928 82.64 94.6661 82.3067 95.3328 81.64C95.8928 81.24 96.2661 80.9867 96.4528 80.88C96.6395 80.7733 96.9328 80.72 97.3328 80.72C97.7595 80.72 98.1328 80.92 98.4528 81.32C98.7728 81.72 98.9328 82.12 98.9328 82.52C98.9328 82.9733 98.6528 83.44 98.0928 83.92C97.5595 84.3733 96.8261 84.8533 95.8928 85.36C95.3861 85.5733 94.6928 85.76 93.8128 85.92C92.9328 86.08 92.1995 86.16 91.6128 86.16C90.6795 86.16 89.6395 85.8933 88.4928 85.36C87.3461 84.8 86.4928 84.1867 85.9328 83.52C85.3728 82.8533 84.8795 81.9067 84.4528 80.68C84.0528 79.4533 83.8528 78.1733 83.8528 76.84ZM91.8128 75.76C93.7061 75.76 95.0928 75.6933 95.9728 75.56C95.9195 74.7867 95.6795 74.16 95.2528 73.68C94.8261 73.1733 94.2395 72.7467 93.4928 72.4C93.2528 72.2933 93.0395 72.2133 92.8528 72.16C92.6661 72.1067 92.4528 72.08 92.2128 72.08C90.9861 72.08 89.9461 72.4133 89.0928 73.08C88.2661 73.7467 87.7728 74.6 87.6128 75.64C88.9461 75.72 90.3461 75.76 91.8128 75.76ZM130.942 78.76C130.942 80.0133 130.648 81.0933 130.062 82C129.502 82.88 128.568 83.6933 127.262 84.44C126.382 84.9733 125.355 85.3733 124.182 85.64C123.008 85.9067 121.822 86.04 120.622 86.04C119.395 86.04 117.875 85.64 116.062 84.84C114.755 84.2 113.715 83.44 112.942 82.56C112.195 81.68 111.822 80.72 111.822 79.68C111.822 78.96 111.982 78.44 112.302 78.12C112.622 77.7733 113.142 77.6 113.862 77.6C114.235 77.6 114.622 77.76 115.022 78.08C115.422 78.3733 115.662 78.6667 115.742 78.96C116.115 80.0533 116.768 80.8933 117.702 81.48C118.635 82.04 119.795 82.32 121.182 82.32C122.782 82.32 124.115 82.0267 125.182 81.44C126.275 80.8533 126.822 80.0667 126.822 79.08C126.822 78.12 126.235 77.2667 125.062 76.52C123.888 75.7733 122.688 75.2533 121.462 74.96C119.702 74.48 118.142 73.9067 116.782 73.24C115.368 72.5467 114.315 71.6933 113.622 70.68C112.928 69.6667 112.582 68.6 112.582 67.48C112.582 66.44 112.942 65.3867 113.662 64.32C114.382 63.2267 115.235 62.44 116.222 61.96C116.755 61.6933 117.662 61.4133 118.942 61.12C120.248 60.8 121.195 60.64 121.782 60.64C122.555 60.64 123.408 60.7333 124.342 60.92C125.275 61.1067 126.035 61.3733 126.622 61.72C127.795 62.3867 128.662 62.9867 129.222 63.52C129.782 64.0533 130.062 64.72 130.062 65.52C130.062 66 129.875 66.4267 129.502 66.8C129.155 67.1733 128.542 67.36 127.662 67.36C127.448 67.36 127.235 67.2667 127.022 67.08C126.808 66.8933 126.542 66.6133 126.222 66.24C125.795 65.68 125.382 65.3067 124.982 65.12C124.582 64.9867 123.995 64.84 123.222 64.68C122.475 64.52 121.808 64.44 121.222 64.44C120.582 64.44 119.915 64.5733 119.222 64.84C118.528 65.1067 117.942 65.4933 117.462 66C117.008 66.48 116.782 67.04 116.782 67.68C116.782 68.2133 117.022 68.68 117.502 69.08C118.008 69.4533 118.608 69.76 119.302 70C120.102 70.32 120.968 70.6 121.902 70.84C123.128 71.2133 124.128 71.56 124.902 71.88C125.702 72.1733 126.475 72.5467 127.222 73C128.528 73.7733 129.475 74.5733 130.062 75.4C130.648 76.2 130.942 77.32 130.942 78.76ZM150.443 73.16C150.656 73.5333 150.829 74.08 150.963 74.8C151.096 75.4933 151.163 76.12 151.163 76.68C151.163 77.4267 151.043 78.36 150.803 79.48C150.563 80.5733 150.363 81.3067 150.203 81.68C148.763 84.6667 145.989 86.16 141.883 86.16C140.576 86.16 139.296 85.7333 138.043 84.88C136.789 84 135.896 82.9733 135.363 81.8L135.083 81C135.056 80.8933 134.909 80.4933 134.643 79.8C134.403 79.08 134.283 78.5333 134.283 78.16C134.283 77.0667 134.549 75.8 135.083 74.36C135.616 72.92 136.229 71.7733 136.923 70.92C137.376 70.3067 138.243 69.7867 139.523 69.36C140.803 68.9067 141.936 68.68 142.923 68.68C144.763 68.68 146.243 69.0267 147.363 69.72C148.509 70.4133 149.536 71.56 150.443 73.16ZM146.763 79.6C146.869 79.4133 146.963 79.08 147.043 78.6C147.123 78.12 147.163 77.56 147.163 76.92C147.163 76.1467 147.016 75.3867 146.723 74.64C146.456 73.8933 146.056 73.2533 145.523 72.72C145.496 72.6667 145.403 72.5867 145.243 72.48C145.083 72.3467 144.829 72.2267 144.483 72.12C144.136 71.9867 143.696 71.92 143.163 71.92C142.123 71.92 141.243 72.2267 140.523 72.84C139.803 73.4533 139.256 74.2133 138.883 75.12C138.536 76.0267 138.363 76.92 138.363 77.8C138.363 78.04 138.443 78.5333 138.603 79.28C138.763 80.0267 138.883 80.5067 138.963 80.72C139.176 81.0933 139.589 81.5333 140.203 82.04C140.816 82.52 141.509 82.76 142.283 82.76C143.483 82.76 144.416 82.48 145.083 81.92C145.776 81.36 146.336 80.5867 146.763 79.6ZM167.435 73.88C167.035 73.88 166.688 73.7867 166.395 73.6C166.128 73.3867 165.848 73.1067 165.555 72.76C165.262 72.4133 164.942 72.1867 164.595 72.08C164.275 71.9733 163.902 71.92 163.475 71.92C162.702 71.92 161.942 72.16 161.195 72.64C160.475 73.0933 159.875 73.7333 159.395 74.56C158.942 75.3867 158.715 76.3067 158.715 77.32C158.715 78.44 158.928 79.3733 159.355 80.12C159.808 80.8667 160.515 81.52 161.475 82.08C161.822 82.2667 162.222 82.4133 162.675 82.52C163.155 82.6267 163.568 82.68 163.915 82.68C164.742 82.68 165.808 82.32 167.115 81.6C167.222 81.5467 167.422 81.4533 167.715 81.32C168.035 81.16 168.275 81.08 168.435 81.08C168.728 81.08 169.062 81.2267 169.435 81.52C169.808 81.7867 169.995 82.12 169.995 82.52C169.995 83.32 169.648 84 168.955 84.56C168.288 85.12 167.448 85.5333 166.435 85.8C165.422 86.0667 164.422 86.2 163.435 86.2C161.862 86.2 160.395 85.84 159.035 85.12C157.675 84.4 156.595 83.4 155.795 82.12C154.995 80.84 154.595 79.4 154.595 77.8C154.595 76.0667 154.982 74.5067 155.755 73.12C156.528 71.7067 157.568 70.6 158.875 69.8C160.208 68.9733 161.648 68.56 163.195 68.56C164.688 68.56 166.062 68.8533 167.315 69.44C168.595 70.0267 169.235 70.92 169.235 72.12C169.235 73.2933 168.635 73.88 167.435 73.88ZM175.238 60.32C176.171 60.4 176.985 60.6533 177.678 61.08C178.371 61.48 178.718 62.0933 178.718 62.92C178.718 63.5333 178.425 64.0267 177.838 64.4C177.278 64.7467 176.598 64.92 175.798 64.92C175.025 64.92 174.491 64.72 174.198 64.32C173.905 63.92 173.758 63.5067 173.758 63.08C173.758 62.28 173.838 61.6133 173.998 61.08C174.185 60.5467 174.598 60.2933 175.238 60.32ZM178.438 78.04V79.2C178.438 80.24 178.465 81.2267 178.518 82.16C178.598 83.0667 178.691 83.9867 178.798 84.92C178.771 85.1867 178.571 85.4667 178.198 85.76C177.825 86.0267 177.491 86.16 177.198 86.16C176.691 86.16 176.171 86.0667 175.638 85.88C175.131 85.6667 174.825 85.4133 174.718 85.12C174.558 84.2667 174.478 83.5067 174.478 82.84C174.478 80.6533 174.411 78.2 174.278 75.48C174.171 73.08 174.118 71.4 174.118 70.44C174.118 69.96 174.358 69.5467 174.838 69.2C175.318 68.8533 175.825 68.68 176.358 68.68C177.131 68.68 177.665 68.8533 177.958 69.2C178.278 69.5467 178.438 70.0933 178.438 70.84V78.04ZM198.633 86.16C197.726 86.16 197.033 86.0267 196.553 85.76C196.073 85.4667 195.553 84.9333 194.993 84.16C194.299 84.7733 193.259 85.2667 191.872 85.64C190.513 86.0133 189.339 86.2 188.353 86.2C186.726 86.2 185.406 85.76 184.393 84.88C183.406 83.9733 182.913 82.6533 182.913 80.92C182.913 80.1733 183.113 79.4933 183.513 78.88C183.939 78.24 184.486 77.68 185.153 77.2C185.899 76.6933 186.779 76.2933 187.793 76C188.833 75.7067 189.779 75.56 190.633 75.56C192.073 75.56 193.353 75.6933 194.473 75.96V75.92C194.473 74.48 194.113 73.4933 193.393 72.96C192.699 72.4 191.579 72.12 190.033 72.12C189.046 72.12 188.193 72.56 187.473 73.44C187.206 73.7867 186.646 73.96 185.793 73.96C185.366 73.96 185.046 73.7867 184.833 73.44C184.646 73.0667 184.553 72.6933 184.553 72.32C184.553 71.5467 184.873 70.88 185.513 70.32C186.179 69.76 186.979 69.3467 187.913 69.08C188.846 68.7867 189.713 68.64 190.513 68.64C191.286 68.64 192.206 68.8 193.273 69.12C194.339 69.44 195.206 69.8667 195.873 70.4C196.673 71.0933 197.286 71.9067 197.713 72.84C198.166 73.7467 198.393 74.7467 198.393 75.84C198.393 76.1867 198.366 76.7067 198.313 77.4C198.259 78.2 198.233 78.8533 198.233 79.36C198.233 79.6 198.206 79.9067 198.153 80.28C198.099 80.76 198.073 81.16 198.073 81.48C198.073 81.8267 198.179 82.16 198.393 82.48C198.606 82.8 198.899 83.0667 199.273 83.28C199.619 83.4667 199.846 83.6667 199.953 83.88C200.059 84.0933 200.113 84.3333 200.113 84.6C200.113 84.8667 199.939 85.2 199.593 85.6C199.273 85.9733 198.953 86.16 198.633 86.16ZM190.633 78.52C189.593 78.52 188.673 78.72 187.873 79.12C187.073 79.52 186.673 80.2267 186.673 81.24C186.673 81.7467 186.846 82.1733 187.192 82.52C187.566 82.8667 187.966 83.04 188.393 83.04C189.539 83.04 190.499 82.92 191.273 82.68C192.046 82.44 192.979 82 194.073 81.36C194.206 80.9333 194.286 80.3333 194.313 79.56C194.313 79.2667 194.326 79.04 194.353 78.88C192.913 78.64 191.673 78.52 190.633 78.52ZM207.6 79.8C207.6 80.8133 207.747 81.6 208.04 82.16C208.36 82.6933 208.76 82.96 209.24 82.96C209.507 82.96 209.76 82.9467 210 82.92C210.24 82.8667 210.48 82.84 210.72 82.84C210.987 82.84 211.213 82.9733 211.4 83.24C211.613 83.5067 211.72 83.8 211.72 84.12C211.72 84.76 211.413 85.2667 210.8 85.64C210.213 85.9867 209.413 86.16 208.4 86.16C207.68 86.16 206.947 85.9467 206.2 85.52C205.48 85.0667 204.88 84.3733 204.4 83.44C203.92 82.48 203.68 81.2933 203.68 79.88C203.68 76.84 203.733 74.2667 203.84 72.16C203.973 69.6533 204.04 66.4933 204.04 62.68C204.04 61.48 204.107 60.64 204.24 60.16C204.4 59.7867 204.653 59.5067 205 59.32C205.373 59.1067 205.76 59 206.16 59C206.56 59 206.907 59.0667 207.2 59.2C207.52 59.3333 207.733 59.5467 207.84 59.84C207.947 60.16 208.013 60.48 208.04 60.8C208.093 61.0933 208.12 61.52 208.12 62.08C208.12 63.1733 208.08 64.2267 208 65.24C207.947 66.4667 207.92 67.36 207.92 67.92C207.707 72.6133 207.6 76.5733 207.6 79.8Z" fill="black"/>
</svg>
