<svg width="79" height="97" viewBox="0 0 79 97" fill="none" xmlns="http://www.w3.org/2000/svg">
<path d="M28.365 9.5098C28.365 8.47957 28.0141 7.58803 27.3124 6.83517C26.6107 6.08231 25.7798 5.70588 24.8195 5.70588C23.8593 5.70588 23.0283 6.08231 22.3266 6.83517C21.6249 7.58803 21.2741 8.47957 21.2741 9.5098C21.2741 10.54 21.6249 11.4316 22.3266 12.1844C23.0283 12.9373 23.8593 13.3137 24.8195 13.3137C25.7798 13.3137 26.6107 12.9373 27.3124 12.1844C28.0141 11.4316 28.365 10.54 28.365 9.5098ZM78.0014 7.60784V26.6275C78.0014 27.2614 77.7798 27.7567 77.3366 28.1134C77.0411 28.3907 76.6718 28.5294 76.2286 28.5294C76.0809 28.5294 75.9516 28.5096 75.8408 28.47L51.0227 22.7641C50.6164 22.6848 50.284 22.4669 50.0255 22.1103C49.767 21.7537 49.6377 21.3574 49.6377 20.9216H35.4559V26.9841C39.5553 27.8954 42.9438 30.0946 45.6214 33.5815C48.2989 37.0684 49.6377 41.0903 49.6377 45.6471V93.1961C49.6377 94.2263 49.2869 95.1178 48.5852 95.8707C47.8835 96.6236 47.0525 97 46.0923 97H17.7286C16.7684 97 15.9374 96.6236 15.2357 95.8707C14.534 95.1178 14.1832 94.2263 14.1832 93.1961V45.6471C14.1832 41.4469 15.3373 37.6727 17.6455 34.3244C19.9538 30.9762 22.936 28.7077 26.5923 27.519V20.9216H24.8195C22.6406 20.9216 20.517 21.3872 18.4488 22.3183C16.3806 23.2495 14.691 24.2995 13.3799 25.4684C12.0688 26.6374 10.8501 27.9549 9.72365 29.421C8.59723 30.887 7.84936 31.947 7.48004 32.6008C7.11073 33.2546 6.8522 33.74 6.70448 34.057C6.07664 35.4438 5.02408 36.1373 3.54681 36.1373C2.9559 36.1373 2.42039 35.9986 1.94027 35.7212C1.09084 35.2457 0.509164 34.5127 0.195243 33.5221C-0.118677 32.5315 -0.0540466 31.5607 0.389135 30.6097C0.573794 30.2134 0.84155 29.6983 1.1924 29.0643C1.54325 28.4304 2.23573 27.3704 3.26982 25.8845C4.30391 24.3986 5.4211 23.0117 6.62138 21.724C7.82166 20.4362 9.39127 19.1088 11.3302 17.7417C13.2691 16.3747 15.2727 15.3346 17.3408 14.6213C16.4175 12.9571 15.9559 11.2533 15.9559 9.5098C15.9559 6.89461 16.8238 4.65584 18.5596 2.7935C20.2954 0.931168 22.382 0 24.8195 0C27.257 0 29.3437 0.931168 31.0795 2.7935C32.8153 4.65584 33.6832 6.89461 33.6832 9.5098C33.6832 10.8174 33.4246 12.0854 32.9076 13.3137H49.6377C49.6377 12.8779 49.767 12.4816 50.0255 12.125C50.284 11.7684 50.6164 11.5504 51.0227 11.4712L75.8408 5.76532C75.9516 5.72569 76.0809 5.70588 76.2286 5.70588C76.6718 5.70588 77.0411 5.84457 77.3366 6.12194C77.7798 6.47855 78.0014 6.97386 78.0014 7.60784Z" fill="#3136B5"/>
</svg>
