<svg width="228" height="114" viewBox="0 0 228 114" fill="none" xmlns="http://www.w3.org/2000/svg">
<rect width="228" height="114" fill="black"/>
<path d="M32.365 17.5098C32.365 16.4796 32.0141 15.588 31.3124 14.8352C30.6107 14.0823 29.7798 13.7059 28.8195 13.7059C27.8593 13.7059 27.0283 14.0823 26.3266 14.8352C25.6249 15.588 25.2741 16.4796 25.2741 17.5098C25.2741 18.54 25.6249 19.4316 26.3266 20.1844C27.0283 20.9373 27.8593 21.3137 28.8195 21.3137C29.7798 21.3137 30.6107 20.9373 31.3124 20.1844C32.0141 19.4316 32.365 18.54 32.365 17.5098ZM82.0014 15.6078V34.6275C82.0014 35.2614 81.7798 35.7567 81.3366 36.1134C81.0411 36.3907 80.6718 36.5294 80.2286 36.5294C80.0809 36.5294 79.9516 36.5096 79.8408 36.47L55.0227 30.7641C54.6164 30.6848 54.284 30.4669 54.0255 30.1103C53.767 29.7537 53.6377 29.3574 53.6377 28.9216H39.4559V34.9841C43.5553 35.8954 46.9438 38.0946 49.6214 41.5815C52.2989 45.0684 53.6377 49.0903 53.6377 53.6471V101.196C53.6377 102.226 53.2869 103.118 52.5852 103.871C51.8835 104.624 51.0525 105 50.0923 105H21.7286C20.7684 105 19.9374 104.624 19.2357 103.871C18.534 103.118 18.1832 102.226 18.1832 101.196V53.6471C18.1832 49.4469 19.3373 45.6727 21.6455 42.3244C23.9538 38.9762 26.936 36.7077 30.5923 35.519V28.9216H28.8195C26.6406 28.9216 24.517 29.3872 22.4488 30.3183C20.3806 31.2495 18.691 32.2995 17.3799 33.4684C16.0688 34.6374 14.8501 35.9549 13.7237 37.421C12.5972 38.887 11.8494 39.947 11.48 40.6008C11.1107 41.2546 10.8522 41.74 10.7045 42.057C10.0766 43.4438 9.02408 44.1373 7.54681 44.1373C6.9559 44.1373 6.42039 43.9986 5.94027 43.7212C5.09084 43.2457 4.50916 42.5127 4.19524 41.5221C3.88132 40.5315 3.94595 39.5607 4.38914 38.6097C4.57379 38.2134 4.84155 37.6983 5.1924 37.0643C5.54325 36.4304 6.23573 35.3704 7.26982 33.8845C8.30391 32.3986 9.4211 31.0117 10.6214 29.724C11.8217 28.4362 13.3913 27.1088 15.3302 25.7417C17.2691 24.3747 19.2727 23.3346 21.3408 22.6213C20.4175 20.9571 19.9559 19.2533 19.9559 17.5098C19.9559 14.8946 20.8238 12.6558 22.5596 10.7935C24.2954 8.93117 26.382 8 28.8195 8C31.257 8 33.3437 8.93117 35.0795 10.7935C36.8153 12.6558 37.6832 14.8946 37.6832 17.5098C37.6832 18.8174 37.4246 20.0854 36.9076 21.3137H53.6377C53.6377 20.8779 53.767 20.4816 54.0255 20.125C54.284 19.7684 54.6164 19.5504 55.0227 19.4712L79.8408 13.7653C79.9516 13.7257 80.0809 13.7059 80.2286 13.7059C80.6718 13.7059 81.0411 13.8446 81.3366 14.1219C81.7798 14.4786 82.0014 14.9739 82.0014 15.6078Z" fill="white"/>
<path d="M64.16 68.32C65.0933 68.4 65.9067 68.6533 66.6 69.08C67.2933 69.48 67.64 70.0933 67.64 70.92C67.64 71.5333 67.3467 72.0267 66.76 72.4C66.2 72.7467 65.52 72.92 64.72 72.92C63.9467 72.92 63.4133 72.72 63.12 72.32C62.8267 71.92 62.68 71.5067 62.68 71.08C62.68 70.28 62.76 69.6133 62.92 69.08C63.1067 68.5467 63.52 68.2933 64.16 68.32ZM67.36 86.04V87.2C67.36 88.24 67.3867 89.2267 67.44 90.16C67.52 91.0667 67.6133 91.9867 67.72 92.92C67.6933 93.1867 67.4933 93.4667 67.12 93.76C66.7467 94.0267 66.4133 94.16 66.12 94.16C65.6133 94.16 65.0933 94.0667 64.56 93.88C64.0533 93.6667 63.7467 93.4133 63.64 93.12C63.48 92.2667 63.4 91.5067 63.4 90.84C63.4 88.6533 63.3333 86.2 63.2 83.48C63.0933 81.08 63.04 79.4 63.04 78.44C63.04 77.96 63.28 77.5467 63.76 77.2C64.24 76.8533 64.7467 76.68 65.28 76.68C66.0533 76.68 66.5867 76.8533 66.88 77.2C67.2 77.5467 67.36 78.0933 67.36 78.84V86.04ZM78.2744 92.4C78.2744 92.8533 78.101 93.2533 77.7544 93.6C77.4077 93.9467 76.981 94.12 76.4744 94.12C75.6744 94.12 75.0877 93.9733 74.7144 93.68C74.341 93.36 74.1544 92.7867 74.1544 91.96C74.1544 90.9733 74.1277 89.68 74.0744 88.08C74.021 86.7467 73.9944 85.6267 73.9944 84.72C73.9944 84.2933 74.021 83.7333 74.0744 83.04C74.1277 82.4 74.1544 81.92 74.1544 81.6C74.0744 81.0933 73.8744 80.68 73.5544 80.36C73.2344 80.0133 72.821 79.84 72.3144 79.84C72.0744 79.84 71.8744 79.7333 71.7144 79.52C71.5544 79.28 71.4744 79.04 71.4744 78.8C71.4744 78.1867 71.7144 77.72 72.1944 77.4C72.701 77.08 73.301 76.92 73.9944 76.92C75.4344 76.92 76.4344 77.7733 76.9944 79.48C77.6877 78.68 78.4744 78.04 79.3544 77.56C80.261 77.0533 81.1277 76.8 81.9544 76.8C82.941 76.8 83.8344 77.0667 84.6344 77.6C85.461 78.1333 85.8744 78.8533 85.8744 79.76C85.8744 80.2667 85.6477 80.7867 85.1944 81.32C84.7677 81.8533 84.3277 82.12 83.8744 82.12C83.6344 82.12 83.421 82.0667 83.2344 81.96C83.0744 81.8267 82.8744 81.64 82.6344 81.4C82.3677 81.1333 82.141 80.9467 81.9544 80.84C81.7677 80.7067 81.5544 80.64 81.3144 80.64C80.8877 80.64 80.4877 80.7067 80.1144 80.84C79.741 80.9733 79.4877 81.1333 79.3544 81.32C78.9277 81.9867 78.6077 82.5867 78.3944 83.12C78.2077 83.6533 78.1144 84.2267 78.1144 84.84C78.1144 85.2933 78.101 85.6533 78.0744 85.92L78.0344 88.2C78.0344 88.5467 78.0477 88.9333 78.0744 89.36C78.101 89.7867 78.1277 90.1067 78.1544 90.32C78.2344 91.04 78.2744 91.7333 78.2744 92.4ZM87.8528 84.84C87.8528 83.2133 88.2128 81.8667 88.9328 80.8C89.6528 79.7067 90.6528 78.68 91.9328 77.72C92.3061 77.4533 92.9328 77.2267 93.8128 77.04C94.6928 76.8267 95.4661 76.72 96.1328 76.72C96.9328 76.72 97.7728 76.8933 98.6528 77.24C99.5595 77.56 100.293 77.9333 100.853 78.36C101.839 79.08 102.519 79.92 102.893 80.88C103.266 81.8133 103.453 82.9333 103.453 84.24C103.453 84.8 103.133 85.3467 102.493 85.88C101.879 86.3867 101.213 86.64 100.493 86.64L98.9728 86.6C98.1995 86.6 97.0928 86.6267 95.6528 86.68L94.8128 86.72C94.2261 86.7733 93.7861 86.8 93.4928 86.8C93.0661 86.8 92.4795 86.7467 91.7328 86.64C91.8395 87.8933 92.3061 88.88 93.1328 89.6C93.9595 90.2933 94.8528 90.64 95.8128 90.64C97.4928 90.64 98.6661 90.3067 99.3328 89.64C99.8928 89.24 100.266 88.9867 100.453 88.88C100.639 88.7733 100.933 88.72 101.333 88.72C101.759 88.72 102.133 88.92 102.453 89.32C102.773 89.72 102.933 90.12 102.933 90.52C102.933 90.9733 102.653 91.44 102.093 91.92C101.559 92.3733 100.826 92.8533 99.8928 93.36C99.3861 93.5733 98.6928 93.76 97.8128 93.92C96.9328 94.08 96.1995 94.16 95.6128 94.16C94.6795 94.16 93.6395 93.8933 92.4928 93.36C91.3461 92.8 90.4928 92.1867 89.9328 91.52C89.3728 90.8533 88.8795 89.9067 88.4528 88.68C88.0528 87.4533 87.8528 86.1733 87.8528 84.84ZM95.8128 83.76C97.7061 83.76 99.0928 83.6933 99.9728 83.56C99.9195 82.7867 99.6795 82.16 99.2528 81.68C98.8261 81.1733 98.2395 80.7467 97.4928 80.4C97.2528 80.2933 97.0395 80.2133 96.8528 80.16C96.6661 80.1067 96.4528 80.08 96.2128 80.08C94.9861 80.08 93.9461 80.4133 93.0928 81.08C92.2661 81.7467 91.7728 82.6 91.6128 83.64C92.9461 83.72 94.3461 83.76 95.8128 83.76ZM134.942 86.76C134.942 88.0133 134.648 89.0933 134.062 90C133.502 90.88 132.568 91.6933 131.262 92.44C130.382 92.9733 129.355 93.3733 128.182 93.64C127.008 93.9067 125.822 94.04 124.622 94.04C123.395 94.04 121.875 93.64 120.062 92.84C118.755 92.2 117.715 91.44 116.942 90.56C116.195 89.68 115.822 88.72 115.822 87.68C115.822 86.96 115.982 86.44 116.302 86.12C116.622 85.7733 117.142 85.6 117.862 85.6C118.235 85.6 118.622 85.76 119.022 86.08C119.422 86.3733 119.662 86.6667 119.742 86.96C120.115 88.0533 120.768 88.8933 121.702 89.48C122.635 90.04 123.795 90.32 125.182 90.32C126.782 90.32 128.115 90.0267 129.182 89.44C130.275 88.8533 130.822 88.0667 130.822 87.08C130.822 86.12 130.235 85.2667 129.062 84.52C127.888 83.7733 126.688 83.2533 125.462 82.96C123.702 82.48 122.142 81.9067 120.782 81.24C119.368 80.5467 118.315 79.6933 117.622 78.68C116.928 77.6667 116.582 76.6 116.582 75.48C116.582 74.44 116.942 73.3867 117.662 72.32C118.382 71.2267 119.235 70.44 120.222 69.96C120.755 69.6933 121.662 69.4133 122.942 69.12C124.248 68.8 125.195 68.64 125.782 68.64C126.555 68.64 127.408 68.7333 128.342 68.92C129.275 69.1067 130.035 69.3733 130.622 69.72C131.795 70.3867 132.662 70.9867 133.222 71.52C133.782 72.0533 134.062 72.72 134.062 73.52C134.062 74 133.875 74.4267 133.502 74.8C133.155 75.1733 132.542 75.36 131.662 75.36C131.448 75.36 131.235 75.2667 131.022 75.08C130.808 74.8933 130.542 74.6133 130.222 74.24C129.795 73.68 129.382 73.3067 128.982 73.12C128.582 72.9867 127.995 72.84 127.222 72.68C126.475 72.52 125.808 72.44 125.222 72.44C124.582 72.44 123.915 72.5733 123.222 72.84C122.528 73.1067 121.942 73.4933 121.462 74C121.008 74.48 120.782 75.04 120.782 75.68C120.782 76.2133 121.022 76.68 121.502 77.08C122.008 77.4533 122.608 77.76 123.302 78C124.102 78.32 124.968 78.6 125.902 78.84C127.128 79.2133 128.128 79.56 128.902 79.88C129.702 80.1733 130.475 80.5467 131.222 81C132.528 81.7733 133.475 82.5733 134.062 83.4C134.648 84.2 134.942 85.32 134.942 86.76ZM154.443 81.16C154.656 81.5333 154.829 82.08 154.963 82.8C155.096 83.4933 155.163 84.12 155.163 84.68C155.163 85.4267 155.043 86.36 154.803 87.48C154.563 88.5733 154.363 89.3067 154.203 89.68C152.763 92.6667 149.989 94.16 145.883 94.16C144.576 94.16 143.296 93.7333 142.043 92.88C140.789 92 139.896 90.9733 139.363 89.8L139.083 89C139.056 88.8933 138.909 88.4933 138.643 87.8C138.403 87.08 138.283 86.5333 138.283 86.16C138.283 85.0667 138.549 83.8 139.083 82.36C139.616 80.92 140.229 79.7733 140.923 78.92C141.376 78.3067 142.243 77.7867 143.523 77.36C144.803 76.9067 145.936 76.68 146.923 76.68C148.763 76.68 150.243 77.0267 151.363 77.72C152.509 78.4133 153.536 79.56 154.443 81.16ZM150.763 87.6C150.869 87.4133 150.963 87.08 151.043 86.6C151.123 86.12 151.163 85.56 151.163 84.92C151.163 84.1467 151.016 83.3867 150.723 82.64C150.456 81.8933 150.056 81.2533 149.523 80.72C149.496 80.6667 149.403 80.5867 149.243 80.48C149.083 80.3467 148.829 80.2267 148.483 80.12C148.136 79.9867 147.696 79.92 147.163 79.92C146.123 79.92 145.243 80.2267 144.523 80.84C143.803 81.4533 143.256 82.2133 142.883 83.12C142.536 84.0267 142.363 84.92 142.363 85.8C142.363 86.04 142.443 86.5333 142.603 87.28C142.763 88.0267 142.883 88.5067 142.963 88.72C143.176 89.0933 143.589 89.5333 144.203 90.04C144.816 90.52 145.509 90.76 146.283 90.76C147.483 90.76 148.416 90.48 149.083 89.92C149.776 89.36 150.336 88.5867 150.763 87.6ZM171.435 81.88C171.035 81.88 170.688 81.7867 170.395 81.6C170.128 81.3867 169.848 81.1067 169.555 80.76C169.262 80.4133 168.942 80.1867 168.595 80.08C168.275 79.9733 167.902 79.92 167.475 79.92C166.702 79.92 165.942 80.16 165.195 80.64C164.475 81.0933 163.875 81.7333 163.395 82.56C162.942 83.3867 162.715 84.3067 162.715 85.32C162.715 86.44 162.928 87.3733 163.355 88.12C163.808 88.8667 164.515 89.52 165.475 90.08C165.822 90.2667 166.222 90.4133 166.675 90.52C167.155 90.6267 167.568 90.68 167.915 90.68C168.742 90.68 169.808 90.32 171.115 89.6C171.222 89.5467 171.422 89.4533 171.715 89.32C172.035 89.16 172.275 89.08 172.435 89.08C172.728 89.08 173.062 89.2267 173.435 89.52C173.808 89.7867 173.995 90.12 173.995 90.52C173.995 91.32 173.648 92 172.955 92.56C172.288 93.12 171.448 93.5333 170.435 93.8C169.422 94.0667 168.422 94.2 167.435 94.2C165.862 94.2 164.395 93.84 163.035 93.12C161.675 92.4 160.595 91.4 159.795 90.12C158.995 88.84 158.595 87.4 158.595 85.8C158.595 84.0667 158.982 82.5067 159.755 81.12C160.528 79.7067 161.568 78.6 162.875 77.8C164.208 76.9733 165.648 76.56 167.195 76.56C168.688 76.56 170.062 76.8533 171.315 77.44C172.595 78.0267 173.235 78.92 173.235 80.12C173.235 81.2933 172.635 81.88 171.435 81.88ZM179.238 68.32C180.171 68.4 180.985 68.6533 181.678 69.08C182.371 69.48 182.718 70.0933 182.718 70.92C182.718 71.5333 182.425 72.0267 181.838 72.4C181.278 72.7467 180.598 72.92 179.798 72.92C179.025 72.92 178.491 72.72 178.198 72.32C177.905 71.92 177.758 71.5067 177.758 71.08C177.758 70.28 177.838 69.6133 177.998 69.08C178.185 68.5467 178.598 68.2933 179.238 68.32ZM182.438 86.04V87.2C182.438 88.24 182.465 89.2267 182.518 90.16C182.598 91.0667 182.691 91.9867 182.798 92.92C182.771 93.1867 182.571 93.4667 182.198 93.76C181.825 94.0267 181.491 94.16 181.198 94.16C180.691 94.16 180.171 94.0667 179.638 93.88C179.131 93.6667 178.825 93.4133 178.718 93.12C178.558 92.2667 178.478 91.5067 178.478 90.84C178.478 88.6533 178.411 86.2 178.278 83.48C178.171 81.08 178.118 79.4 178.118 78.44C178.118 77.96 178.358 77.5467 178.838 77.2C179.318 76.8533 179.825 76.68 180.358 76.68C181.131 76.68 181.665 76.8533 181.958 77.2C182.278 77.5467 182.438 78.0933 182.438 78.84V86.04ZM202.633 94.16C201.726 94.16 201.033 94.0267 200.553 93.76C200.073 93.4667 199.553 92.9333 198.993 92.16C198.299 92.7733 197.259 93.2667 195.872 93.64C194.513 94.0133 193.339 94.2 192.353 94.2C190.726 94.2 189.406 93.76 188.393 92.88C187.406 91.9733 186.913 90.6533 186.913 88.92C186.913 88.1733 187.113 87.4933 187.513 86.88C187.939 86.24 188.486 85.68 189.153 85.2C189.899 84.6933 190.779 84.2933 191.793 84C192.833 83.7067 193.779 83.56 194.633 83.56C196.073 83.56 197.353 83.6933 198.473 83.96V83.92C198.473 82.48 198.113 81.4933 197.393 80.96C196.699 80.4 195.579 80.12 194.033 80.12C193.046 80.12 192.193 80.56 191.473 81.44C191.206 81.7867 190.646 81.96 189.793 81.96C189.366 81.96 189.046 81.7867 188.833 81.44C188.646 81.0667 188.553 80.6933 188.553 80.32C188.553 79.5467 188.873 78.88 189.513 78.32C190.179 77.76 190.979 77.3467 191.913 77.08C192.846 76.7867 193.713 76.64 194.513 76.64C195.286 76.64 196.206 76.8 197.273 77.12C198.339 77.44 199.206 77.8667 199.873 78.4C200.673 79.0933 201.286 79.9067 201.713 80.84C202.166 81.7467 202.393 82.7467 202.393 83.84C202.393 84.1867 202.366 84.7067 202.313 85.4C202.259 86.2 202.233 86.8533 202.233 87.36C202.233 87.6 202.206 87.9067 202.153 88.28C202.099 88.76 202.073 89.16 202.073 89.48C202.073 89.8267 202.179 90.16 202.393 90.48C202.606 90.8 202.899 91.0667 203.273 91.28C203.619 91.4667 203.846 91.6667 203.953 91.88C204.059 92.0933 204.113 92.3333 204.113 92.6C204.113 92.8667 203.939 93.2 203.593 93.6C203.273 93.9733 202.953 94.16 202.633 94.16ZM194.633 86.52C193.593 86.52 192.673 86.72 191.873 87.12C191.073 87.52 190.673 88.2267 190.673 89.24C190.673 89.7467 190.846 90.1733 191.192 90.52C191.566 90.8667 191.966 91.04 192.393 91.04C193.539 91.04 194.499 90.92 195.273 90.68C196.046 90.44 196.979 90 198.073 89.36C198.206 88.9333 198.286 88.3333 198.313 87.56C198.313 87.2667 198.326 87.04 198.353 86.88C196.913 86.64 195.673 86.52 194.633 86.52ZM211.6 87.8C211.6 88.8133 211.747 89.6 212.04 90.16C212.36 90.6933 212.76 90.96 213.24 90.96C213.507 90.96 213.76 90.9467 214 90.92C214.24 90.8667 214.48 90.84 214.72 90.84C214.987 90.84 215.213 90.9733 215.4 91.24C215.613 91.5067 215.72 91.8 215.72 92.12C215.72 92.76 215.413 93.2667 214.8 93.64C214.213 93.9867 213.413 94.16 212.4 94.16C211.68 94.16 210.947 93.9467 210.2 93.52C209.48 93.0667 208.88 92.3733 208.4 91.44C207.92 90.48 207.68 89.2933 207.68 87.88C207.68 84.84 207.733 82.2667 207.84 80.16C207.973 77.6533 208.04 74.4933 208.04 70.68C208.04 69.48 208.107 68.64 208.24 68.16C208.4 67.7867 208.653 67.5067 209 67.32C209.373 67.1067 209.76 67 210.16 67C210.56 67 210.907 67.0667 211.2 67.2C211.52 67.3333 211.733 67.5467 211.84 67.84C211.947 68.16 212.013 68.48 212.04 68.8C212.093 69.0933 212.12 69.52 212.12 70.08C212.12 71.1733 212.08 72.2267 212 73.24C211.947 74.4667 211.92 75.36 211.92 75.92C211.707 80.6133 211.6 84.5733 211.6 87.8Z" fill="white"/>
</svg>
